# MagicaVoxel @ Ephtracy

# group
o 

# material
mtllib zombie.mtl
usemtl palette

# normals
vn -1 0 0
vn 1 0 0
vn 0 0 1
vn 0 0 -1
vn 0 -1 0
vn 0 1 0

# texcoords
vt 0.0605469 0.5
vt 0.341797 0.5
vt 0.455078 0.5
vt 0.541016 0.5
vt 0.560547 0.5
vt 0.595703 0.5
vt 0.626953 0.5

# verts
v 0 2.1 -0.1
v 0 2.1 -0.2
v 0 2.1 -0.5
v 0 2.1 -0.9
v 0 2.2 0
v 0 2.2 -0.1
v 0 2.2 -0.2
v 0 2.2 -0.5
v 0 2.2 -0.6
v 0 2.2 -0.8
v 0 2.2 -0.9
v 0 2.3 -0.2
v 0 2.3 -0.4
v 0 2.3 -0.6
v 0 2.3 -0.7
v 0 2.3 -0.8
v 0 2.3 -0.9
v 0 2.4 -0.8
v 0 2.4 -0.9
v 0 2.5 -0.9
v 0 2.5 -1
v 0 2.6 -0.6
v 0 2.6 -0.7
v 0 2.7 -0.2
v 0 2.7 -0.4
v 0 3 0
v 0 3 -1
v 0.1 2.1 0
v 0.1 2.1 -0.1
v 0.1 2.1 -0.9
v 0.1 2.1 -1
v 0.1 2.2 0
v 0.1 2.2 -0.1
v 0.1 2.2 -0.9
v 0.1 2.3 -0.2
v 0.1 2.3 -0.4
v 0.1 2.3 -0.6
v 0.1 2.3 -0.7
v 0.1 2.3 -0.9
v 0.1 2.3 -1
v 0.1 2.4 -0.9
v 0.1 2.4 -1
v 0.1 2.5 -0.9
v 0.1 2.5 -1
v 0.1 2.6 -0.6
v 0.1 2.6 -0.7
v 0.1 2.7 -0.2
v 0.1 2.7 -0.4
v 0.2 2 -0.3
v 0.2 2 -0.6
v 0.2 2.1 -0.3
v 0.2 2.1 -0.6
v 0.2 2.3 -0.8
v 0.2 2.3 -1
v 0.2 2.4 -0.8
v 0.2 2.4 -1
v 0.3 2.6 0
v 0.3 2.6 -0.1
v 0.3 2.7 0
v 0.3 2.7 -0.1
v 0.6 2 -0.3
v 0.6 2 -0.5
v 0.6 2 -0.6
v 0.6 2.1 -0.3
v 0.6 2.1 -0.5
v 0.6 2.1 -0.6
v 0.6 2.3 -0.1
v 0.6 2.3 -0.2
v 0.6 2.3 -0.4
v 0.6 2.4 -0.1
v 0.6 2.5 -0.1
v 0.6 2.5 -0.2
v 0.6 2.6 0
v 0.6 2.6 -0.1
v 0.6 2.6 -0.2
v 0.6 2.6 -0.4
v 0.6 2.7 0
v 0.6 2.7 -0.1
v 0.8 2.4 0
v 0.8 2.4 -0.1
v 0.8 2.8 0
v 0.8 2.8 -0.1
v 0.2 2.4 0
v 0.2 2.4 -0.1
v 0.2 2.8 0
v 0.2 2.8 -0.1
v 0.4 2 -0.3
v 0.4 2 -0.5
v 0.4 2 -0.6
v 0.4 2.1 -0.3
v 0.4 2.1 -0.5
v 0.4 2.1 -0.6
v 0.4 2.3 -0.1
v 0.4 2.3 -0.2
v 0.4 2.3 -0.4
v 0.4 2.4 -0.1
v 0.4 2.6 0
v 0.4 2.6 -0.1
v 0.4 2.6 -0.2
v 0.4 2.6 -0.4
v 0.4 2.7 0
v 0.4 2.7 -0.1
v 0.7 2.3 -0.9
v 0.7 2.3 -1
v 0.7 2.4 -0.9
v 0.7 2.4 -1
v 0.7 2.6 0
v 0.7 2.6 -0.1
v 0.7 2.7 0
v 0.7 2.7 -0.1
v 0.8 2 -0.3
v 0.8 2 -0.6
v 0.8 2.1 -0.3
v 0.8 2.1 -0.6
v 0.8 2.3 -0.8
v 0.8 2.3 -0.9
v 0.8 2.4 -0.8
v 0.8 2.4 -0.9
v 0.9 2.1 0
v 0.9 2.1 -0.1
v 0.9 2.1 -0.9
v 0.9 2.1 -1
v 0.9 2.2 0
v 0.9 2.2 -0.1
v 0.9 2.3 -0.2
v 0.9 2.3 -0.4
v 0.9 2.3 -0.6
v 0.9 2.3 -0.7
v 0.9 2.3 -0.9
v 0.9 2.3 -1
v 0.9 2.4 -0.9
v 0.9 2.4 -1
v 0.9 2.5 -0.9
v 0.9 2.5 -1
v 0.9 2.6 -0.6
v 0.9 2.6 -0.7
v 0.9 2.7 -0.2
v 0.9 2.7 -0.4
v 1 2.1 -0.1
v 1 2.1 -0.2
v 1 2.1 -0.8
v 1 2.1 -0.9
v 1 2.2 0
v 1 2.2 -0.1
v 1 2.2 -0.2
v 1 2.2 -0.5
v 1 2.2 -0.7
v 1 2.3 -0.2
v 1 2.3 -0.4
v 1 2.3 -0.5
v 1 2.3 -0.6
v 1 2.3 -0.7
v 1 2.3 -0.8
v 1 2.3 -0.9
v 1 2.4 -0.8
v 1 2.4 -0.9
v 1 2.5 -0.9
v 1 2.5 -1
v 1 2.6 -0.6
v 1 2.6 -0.7
v 1 2.7 -0.2
v 1 2.7 -0.4
v 1 3 0
v 1 3 -1
v 0 2.2 0
v 0 3 0
v 0.1 2.1 0
v 0.1 2.2 0
v 0.2 2.2 0
v 0.2 2.3 0
v 0.2 2.4 0
v 0.2 2.8 0
v 0.3 2.6 0
v 0.3 2.7 0
v 0.4 2.2 0
v 0.4 2.3 0
v 0.4 2.6 0
v 0.4 2.7 0
v 0.5 2.1 0
v 0.5 2.2 0
v 0.6 2.3 0
v 0.6 2.4 0
v 0.6 2.6 0
v 0.6 2.7 0
v 0.7 2.1 0
v 0.7 2.2 0
v 0.7 2.6 0
v 0.7 2.7 0
v 0.8 2.2 0
v 0.8 2.3 0
v 0.8 2.4 0
v 0.8 2.8 0
v 0.9 2.1 0
v 0.9 2.2 0
v 1 2.2 0
v 1 3 0
v 0 2.1 -0.1
v 0 2.2 -0.1
v 0.1 2.1 -0.1
v 0.1 2.2 -0.1
v 0.2 2.4 -0.1
v 0.2 2.8 -0.1
v 0.3 2.6 -0.1
v 0.3 2.7 -0.1
v 0.4 2.4 -0.1
v 0.4 2.6 -0.1
v 0.4 2.7 -0.1
v 0.4 2.8 -0.1
v 0.5 2.6 -0.1
v 0.5 2.7 -0.1
v 0.6 2.4 -0.1
v 0.6 2.5 -0.1
v 0.6 2.6 -0.1
v 0.6 2.7 -0.1
v 0.7 2.4 -0.1
v 0.7 2.5 -0.1
v 0.7 2.6 -0.1
v 0.7 2.7 -0.1
v 0.8 2.4 -0.1
v 0.8 2.8 -0.1
v 0.9 2.1 -0.1
v 0.9 2.2 -0.1
v 1 2.1 -0.1
v 1 2.2 -0.1
v 0.2 2 -0.3
v 0.2 2.1 -0.3
v 0.3 2 -0.3
v 0.3 2.1 -0.3
v 0.4 2 -0.3
v 0.4 2.1 -0.3
v 0.6 2 -0.3
v 0.6 2.1 -0.3
v 0.7 2 -0.3
v 0.7 2.1 -0.3
v 0.8 2 -0.3
v 0.8 2.1 -0.3
v 0 2.3 -0.4
v 0 2.7 -0.4
v 0.1 2.3 -0.4
v 0.1 2.7 -0.4
v 0.4 2.3 -0.4
v 0.4 2.6 -0.4
v 0.6 2.3 -0.4
v 0.6 2.6 -0.4
v 0.9 2.3 -0.4
v 0.9 2.7 -0.4
v 1 2.3 -0.4
v 1 2.7 -0.4
v 0 2.3 -0.7
v 0 2.6 -0.7
v 0.1 2.3 -0.7
v 0.1 2.6 -0.7
v 0.9 2.3 -0.7
v 0.9 2.6 -0.7
v 1 2.3 -0.7
v 1 2.6 -0.7
v 0.4 2.3 -0.1
v 0.4 2.4 -0.1
v 0.6 2.3 -0.1
v 0.6 2.4 -0.1
v 0 2.3 -0.2
v 0 2.7 -0.2
v 0.1 2.3 -0.2
v 0.1 2.7 -0.2
v 0.9 2.3 -0.2
v 0.9 2.7 -0.2
v 1 2.3 -0.2
v 1 2.7 -0.2
v 0 2.3 -0.6
v 0 2.6 -0.6
v 0.1 2.3 -0.6
v 0.1 2.6 -0.6
v 0.2 2 -0.6
v 0.2 2.1 -0.6
v 0.4 2 -0.6
v 0.4 2.1 -0.6
v 0.6 2 -0.6
v 0.6 2.1 -0.6
v 0.8 2 -0.6
v 0.8 2.1 -0.6
v 0.9 2.3 -0.6
v 0.9 2.6 -0.6
v 1 2.3 -0.6
v 1 2.6 -0.6
v 0 2.3 -0.8
v 0 2.4 -0.8
v 0.2 2.3 -0.8
v 0.2 2.4 -0.8
v 0.8 2.3 -0.8
v 0.8 2.4 -0.8
v 1 2.3 -0.8
v 1 2.4 -0.8
v 0 2.1 -0.9
v 0 2.2 -0.9
v 0 2.3 -0.9
v 0 2.4 -0.9
v 0 2.5 -0.9
v 0.1 2.1 -0.9
v 0.1 2.2 -0.9
v 0.1 2.3 -0.9
v 0.1 2.4 -0.9
v 0.1 2.5 -0.9
v 0.7 2.3 -0.9
v 0.7 2.4 -0.9
v 0.8 2.3 -0.9
v 0.8 2.4 -0.9
v 0.9 2.1 -0.9
v 0.9 2.3 -0.9
v 0.9 2.4 -0.9
v 0.9 2.5 -0.9
v 1 2.1 -0.9
v 1 2.3 -0.9
v 1 2.4 -0.9
v 1 2.5 -0.9
v 0 2.5 -1
v 0 3 -1
v 0.1 2.1 -1
v 0.1 2.3 -1
v 0.1 2.4 -1
v 0.1 2.5 -1
v 0.2 2.3 -1
v 0.2 2.4 -1
v 0.4 2.1 -1
v 0.4 2.2 -1
v 0.5 2.2 -1
v 0.5 2.3 -1
v 0.7 2.3 -1
v 0.7 2.4 -1
v 0.9 2.1 -1
v 0.9 2.3 -1
v 0.9 2.4 -1
v 0.9 2.5 -1
v 1 2.5 -1
v 1 3 -1
v 0.2 2 -0.3
v 0.3 2 -0.3
v 0.4 2 -0.3
v 0.6 2 -0.3
v 0.7 2 -0.3
v 0.8 2 -0.3
v 0.3 2 -0.5
v 0.4 2 -0.5
v 0.6 2 -0.5
v 0.7 2 -0.5
v 0.2 2 -0.6
v 0.4 2 -0.6
v 0.6 2 -0.6
v 0.8 2 -0.6
v 0.1 2.1 0
v 0.5 2.1 0
v 0.7 2.1 0
v 0.9 2.1 0
v 0 2.1 -0.1
v 0.1 2.1 -0.1
v 0.5 2.1 -0.1
v 0.7 2.1 -0.1
v 0.9 2.1 -0.1
v 1 2.1 -0.1
v 0 2.1 -0.2
v 0.1 2.1 -0.2
v 0.9 2.1 -0.2
v 1 2.1 -0.2
v 0.2 2.1 -0.3
v 0.3 2.1 -0.3
v 0.4 2.1 -0.3
v 0.6 2.1 -0.3
v 0.7 2.1 -0.3
v 0.8 2.1 -0.3
v 0 2.1 -0.5
v 0.1 2.1 -0.5
v 0.4 2.1 -0.5
v 0.6 2.1 -0.5
v 0.2 2.1 -0.6
v 0.4 2.1 -0.6
v 0.6 2.1 -0.6
v 0.8 2.1 -0.6
v 0.9 2.1 -0.8
v 1 2.1 -0.8
v 0 2.1 -0.9
v 0.1 2.1 -0.9
v 0.4 2.1 -0.9
v 0.9 2.1 -0.9
v 1 2.1 -0.9
v 0.1 2.1 -1
v 0.4 2.1 -1
v 0.9 2.1 -1
v 0 2.2 0
v 0.1 2.2 0
v 0.9 2.2 0
v 1 2.2 0
v 0 2.2 -0.1
v 0.1 2.2 -0.1
v 0.9 2.2 -0.1
v 1 2.2 -0.1
v 0 2.4 -0.8
v 0.2 2.4 -0.8
v 0.8 2.4 -0.8
v 1 2.4 -0.8
v 0 2.4 -0.9
v 0.1 2.4 -0.9
v 0.7 2.4 -0.9
v 0.8 2.4 -0.9
v 0.9 2.4 -0.9
v 1 2.4 -0.9
v 0.1 2.4 -1
v 0.2 2.4 -1
v 0.7 2.4 -1
v 0.9 2.4 -1
v 0 2.5 -0.9
v 0.1 2.5 -0.9
v 0.9 2.5 -0.9
v 1 2.5 -0.9
v 0 2.5 -1
v 0.1 2.5 -1
v 0.9 2.5 -1
v 1 2.5 -1
v 0.3 2.6 0
v 0.4 2.6 0
v 0.6 2.6 0
v 0.7 2.6 0
v 0.3 2.6 -0.1
v 0.4 2.6 -0.1
v 0.5 2.6 -0.1
v 0.6 2.6 -0.1
v 0.7 2.6 -0.1
v 0.4 2.6 -0.2
v 0.5 2.6 -0.2
v 0.6 2.6 -0.2
v 0.4 2.6 -0.4
v 0.6 2.6 -0.4
v 0 2.6 -0.6
v 0.1 2.6 -0.6
v 0.9 2.6 -0.6
v 1 2.6 -0.6
v 0 2.6 -0.7
v 0.1 2.6 -0.7
v 0.9 2.6 -0.7
v 1 2.6 -0.7
v 0 2.7 -0.2
v 0.1 2.7 -0.2
v 0.9 2.7 -0.2
v 1 2.7 -0.2
v 0 2.7 -0.4
v 0.1 2.7 -0.4
v 0.9 2.7 -0.4
v 1 2.7 -0.4
v 0.2 2.8 0
v 0.8 2.8 0
v 0.2 2.8 -0.1
v 0.4 2.8 -0.1
v 0.8 2.8 -0.1
v 0.4 2.3 -0.1
v 0.6 2.3 -0.1
v 0 2.3 -0.2
v 0.1 2.3 -0.2
v 0.4 2.3 -0.2
v 0.6 2.3 -0.2
v 0.9 2.3 -0.2
v 1 2.3 -0.2
v 0 2.3 -0.4
v 0.1 2.3 -0.4
v 0.4 2.3 -0.4
v 0.6 2.3 -0.4
v 0.9 2.3 -0.4
v 1 2.3 -0.4
v 0 2.3 -0.6
v 0.1 2.3 -0.6
v 0.9 2.3 -0.6
v 1 2.3 -0.6
v 0 2.3 -0.7
v 0.1 2.3 -0.7
v 0.9 2.3 -0.7
v 1 2.3 -0.7
v 0 2.3 -0.8
v 0.2 2.3 -0.8
v 0.8 2.3 -0.8
v 1 2.3 -0.8
v 0 2.3 -0.9
v 0.1 2.3 -0.9
v 0.7 2.3 -0.9
v 0.8 2.3 -0.9
v 0.9 2.3 -0.9
v 1 2.3 -0.9
v 0.1 2.3 -1
v 0.2 2.3 -1
v 0.7 2.3 -1
v 0.9 2.3 -1
v 0.2 2.4 0
v 0.6 2.4 0
v 0.8 2.4 0
v 0.2 2.4 -0.1
v 0.4 2.4 -0.1
v 0.6 2.4 -0.1
v 0.7 2.4 -0.1
v 0.8 2.4 -0.1
v 0.3 2.7 0
v 0.4 2.7 0
v 0.6 2.7 0
v 0.7 2.7 0
v 0.3 2.7 -0.1
v 0.4 2.7 -0.1
v 0.6 2.7 -0.1
v 0.7 2.7 -0.1
v 0 3 0
v 1 3 0
v 0.1 3 -0.1
v 0.9 3 -0.1
v 0.4 3 -0.2
v 0.9 3 -0.2
v 0.1 3 -0.3
v 0.2 3 -0.3
v 0.4 3 -0.3
v 0.5 3 -0.3
v 0.2 3 -0.4
v 0.3 3 -0.4
v 0.5 3 -0.4
v 0.6 3 -0.4
v 0.3 3 -0.5
v 0.4 3 -0.5
v 0.6 3 -0.5
v 0.7 3 -0.5
v 0.4 3 -0.6
v 0.5 3 -0.6
v 0.7 3 -0.6
v 0.8 3 -0.6
v 0.5 3 -0.7
v 0.6 3 -0.7
v 0.8 3 -0.7
v 0.9 3 -0.7
v 0.1 3 -0.8
v 0.6 3 -0.8
v 0.1 3 -0.9
v 0.9 3 -0.9
v 0 3 -1
v 1 3 -1

# faces
f 6/2/1 2/2/1 1/2/1
f 7/3/1 3/3/1 2/3/1
f 7/2/1 2/2/1 6/2/1
f 8/2/1 4/2/1 3/2/1
f 8/3/1 3/3/1 7/3/1
f 9/2/1 4/2/1 8/2/1
f 10/2/1 4/2/1 9/2/1
f 11/2/1 4/2/1 10/2/1
f 12/6/1 7/6/1 6/6/1
f 12/6/1 6/6/1 5/6/1
f 12/3/1 8/3/1 7/3/1
f 12/3/1 9/3/1 8/3/1
f 13/3/1 9/3/1 12/3/1
f 14/2/1 10/2/1 9/2/1
f 14/3/1 9/3/1 13/3/1
f 15/2/1 10/2/1 14/2/1
f 16/3/1 11/3/1 10/3/1
f 16/2/1 10/2/1 15/2/1
f 17/3/1 11/3/1 16/3/1
f 18/6/1 16/6/1 15/6/1
f 20/6/1 19/6/1 18/6/1
f 22/6/1 14/6/1 13/6/1
f 23/6/1 20/6/1 18/6/1
f 23/6/1 18/6/1 15/6/1
f 23/6/1 21/6/1 20/6/1
f 24/6/1 12/6/1 5/6/1
f 25/6/1 22/6/1 13/6/1
f 25/6/1 23/6/1 22/6/1
f 26/6/1 24/6/1 5/6/1
f 26/6/1 25/6/1 24/6/1
f 27/6/1 23/6/1 25/6/1
f 27/6/1 25/6/1 26/6/1
f 27/6/1 21/6/1 23/6/1
f 32/2/1 29/2/1 28/2/1
f 33/2/1 29/2/1 32/2/1
f 34/3/1 31/3/1 30/3/1
f 39/3/1 31/3/1 34/3/1
f 40/3/1 31/3/1 39/3/1
f 43/6/1 42/6/1 41/6/1
f 44/6/1 42/6/1 43/6/1
f 45/7/1 38/7/1 37/7/1
f 46/7/1 38/7/1 45/7/1
f 47/7/1 36/7/1 35/7/1
f 48/7/1 36/7/1 47/7/1
f 51/7/1 50/7/1 49/7/1
f 52/7/1 50/7/1 51/7/1
f 55/6/1 54/6/1 53/6/1
f 56/6/1 54/6/1 55/6/1
f 59/7/1 58/7/1 57/7/1
f 60/7/1 58/7/1 59/7/1
f 64/4/1 62/4/1 61/4/1
f 65/7/1 63/7/1 62/7/1
f 65/4/1 62/4/1 64/4/1
f 66/7/1 63/7/1 65/7/1
f 70/5/1 68/5/1 67/5/1
f 71/5/1 68/5/1 70/5/1
f 72/1/1 69/1/1 68/1/1
f 72/5/1 68/5/1 71/5/1
f 74/4/1 72/4/1 71/4/1
f 75/1/1 69/1/1 72/1/1
f 75/4/1 72/4/1 74/4/1
f 76/1/1 69/1/1 75/1/1
f 77/7/1 74/7/1 73/7/1
f 78/7/1 74/7/1 77/7/1
f 81/6/1 80/6/1 79/6/1
f 82/6/1 80/6/1 81/6/1
f 83/6/2 84/6/2 85/6/2
f 85/6/2 84/6/2 86/6/2
f 87/5/2 88/5/2 90/5/2
f 88/7/2 89/7/2 91/7/2
f 90/5/2 88/5/2 91/5/2
f 91/7/2 89/7/2 92/7/2
f 93/5/2 94/5/2 96/5/2
f 96/5/2 94/5/2 98/5/2
f 94/1/2 95/1/2 99/1/2
f 98/5/2 94/5/2 99/5/2
f 99/1/2 95/1/2 100/1/2
f 97/7/2 98/7/2 101/7/2
f 101/7/2 98/7/2 102/7/2
f 103/6/2 104/6/2 105/6/2
f 105/6/2 104/6/2 106/6/2
f 107/7/2 108/7/2 109/7/2
f 109/7/2 108/7/2 110/7/2
f 111/7/2 112/7/2 113/7/2
f 113/7/2 112/7/2 114/7/2
f 115/6/2 116/6/2 117/6/2
f 117/6/2 116/6/2 118/6/2
f 119/2/2 120/2/2 123/2/2
f 123/2/2 120/2/2 124/2/2
f 121/2/2 122/2/2 129/2/2
f 129/2/2 122/2/2 130/2/2
f 131/6/2 132/6/2 133/6/2
f 133/6/2 132/6/2 134/6/2
f 127/7/2 128/7/2 135/7/2
f 135/7/2 128/7/2 136/7/2
f 125/7/2 126/7/2 137/7/2
f 137/7/2 126/7/2 138/7/2
f 139/2/2 140/2/2 144/2/2
f 140/3/2 141/3/2 145/3/2
f 144/2/2 140/2/2 145/2/2
f 145/3/2 141/3/2 146/3/2
f 146/3/2 141/3/2 147/3/2
f 143/6/2 144/6/2 148/6/2
f 144/6/2 145/6/2 148/6/2
f 145/3/2 146/3/2 148/3/2
f 148/3/2 146/3/2 149/3/2
f 146/2/2 147/2/2 150/2/2
f 149/3/2 146/3/2 150/3/2
f 150/2/2 147/2/2 151/2/2
f 147/3/2 141/3/2 152/3/2
f 151/2/2 147/2/2 152/2/2
f 141/2/2 142/2/2 153/2/2
f 152/3/2 141/3/2 153/3/2
f 153/2/2 142/2/2 154/2/2
f 152/6/2 153/6/2 155/6/2
f 155/6/2 156/6/2 157/6/2
f 150/6/2 151/6/2 159/6/2
f 149/6/2 150/6/2 159/6/2
f 155/6/2 157/6/2 160/6/2
f 157/6/2 158/6/2 160/6/2
f 152/6/2 155/6/2 160/6/2
f 143/6/2 148/6/2 161/6/2
f 149/6/2 159/6/2 162/6/2
f 159/6/2 160/6/2 162/6/2
f 143/6/2 161/6/2 163/6/2
f 161/6/2 162/6/2 163/6/2
f 162/6/2 160/6/2 164/6/2
f 163/6/2 162/6/2 164/6/2
f 160/6/2 158/6/2 164/6/2
f 168/6/3 166/6/3 165/6/3
f 169/6/3 166/6/3 168/6/3
f 169/2/3 168/2/3 167/2/3
f 170/6/3 166/6/3 169/6/3
f 171/6/3 166/6/3 170/6/3
f 172/6/3 166/6/3 171/6/3
f 175/2/3 169/2/3 167/2/3
f 175/2/3 170/2/3 169/2/3
f 176/3/3 171/3/3 170/3/3
f 176/2/3 170/2/3 175/2/3
f 177/7/3 174/7/3 173/7/3
f 178/7/3 174/7/3 177/7/3
f 179/2/3 175/2/3 167/2/3
f 180/3/3 176/3/3 175/3/3
f 180/2/3 175/2/3 179/2/3
f 181/3/3 171/3/3 176/3/3
f 181/3/3 176/3/3 180/3/3
f 181/3/3 180/3/3 179/3/3
f 182/3/3 171/3/3 181/3/3
f 185/3/3 181/3/3 179/3/3
f 186/3/3 181/3/3 185/3/3
f 187/7/3 184/7/3 183/7/3
f 188/7/3 184/7/3 187/7/3
f 189/3/3 181/3/3 186/3/3
f 189/2/3 186/2/3 185/2/3
f 190/2/3 182/2/3 181/2/3
f 190/3/3 181/3/3 189/3/3
f 191/2/3 182/2/3 190/2/3
f 192/6/3 166/6/3 172/6/3
f 193/2/3 189/2/3 185/2/3
f 194/6/3 191/6/3 190/6/3
f 194/2/3 189/2/3 193/2/3
f 194/6/3 190/6/3 189/6/3
f 194/6/3 192/6/3 191/6/3
f 195/6/3 192/6/3 194/6/3
f 196/6/3 166/6/3 192/6/3
f 196/6/3 192/6/3 195/6/3
f 199/2/3 198/2/3 197/2/3
f 200/2/3 198/2/3 199/2/3
f 203/5/3 202/5/3 201/5/3
f 204/5/3 202/5/3 203/5/3
f 205/5/3 203/5/3 201/5/3
f 206/5/3 203/5/3 205/5/3
f 207/5/3 202/5/3 204/5/3
f 208/5/3 202/5/3 207/5/3
f 209/5/3 207/5/3 206/5/3
f 210/4/3 208/4/3 207/4/3
f 210/5/3 207/5/3 209/5/3
f 213/4/3 210/4/3 209/4/3
f 214/4/3 208/4/3 210/4/3
f 214/4/3 210/4/3 213/4/3
f 215/5/3 212/5/3 211/5/3
f 216/4/3 213/4/3 212/4/3
f 216/5/3 212/5/3 215/5/3
f 217/4/3 213/4/3 216/4/3
f 218/4/3 208/4/3 214/4/3
f 219/4/3 217/4/3 216/4/3
f 219/4/3 218/4/3 217/4/3
f 219/4/3 216/4/3 215/4/3
f 220/4/3 208/4/3 218/4/3
f 220/4/3 218/4/3 219/4/3
f 223/2/3 222/2/3 221/2/3
f 224/2/3 222/2/3 223/2/3
f 227/7/3 226/7/3 225/7/3
f 228/7/3 226/7/3 227/7/3
f 229/5/3 228/5/3 227/5/3
f 230/5/3 228/5/3 229/5/3
f 233/4/3 232/4/3 231/4/3
f 234/4/3 232/4/3 233/4/3
f 235/7/3 234/7/3 233/7/3
f 236/7/3 234/7/3 235/7/3
f 239/6/3 238/6/3 237/6/3
f 240/6/3 238/6/3 239/6/3
f 243/1/3 242/1/3 241/1/3
f 244/1/3 242/1/3 243/1/3
f 247/6/3 246/6/3 245/6/3
f 248/6/3 246/6/3 247/6/3
f 251/6/3 250/6/3 249/6/3
f 252/6/3 250/6/3 251/6/3
f 255/6/3 254/6/3 253/6/3
f 256/6/3 254/6/3 255/6/3
f 257/3/4 258/3/4 259/3/4
f 259/3/4 258/3/4 260/3/4
f 261/6/4 262/6/4 263/6/4
f 263/6/4 262/6/4 264/6/4
f 265/6/4 266/6/4 267/6/4
f 267/6/4 266/6/4 268/6/4
f 269/6/4 270/6/4 271/6/4
f 271/6/4 270/6/4 272/6/4
f 273/7/4 274/7/4 275/7/4
f 275/7/4 274/7/4 276/7/4
f 277/7/4 278/7/4 279/7/4
f 279/7/4 278/7/4 280/7/4
f 281/6/4 282/6/4 283/6/4
f 283/6/4 282/6/4 284/6/4
f 285/6/4 286/6/4 287/6/4
f 287/6/4 286/6/4 288/6/4
f 289/6/4 290/6/4 291/6/4
f 291/6/4 290/6/4 292/6/4
f 293/2/4 294/2/4 298/2/4
f 294/3/4 295/3/4 299/3/4
f 298/2/4 294/2/4 299/2/4
f 299/3/4 295/3/4 300/3/4
f 296/6/4 297/6/4 301/6/4
f 301/6/4 297/6/4 302/6/4
f 303/6/4 304/6/4 305/6/4
f 305/6/4 304/6/4 306/6/4
f 307/2/4 308/2/4 311/2/4
f 311/2/4 308/2/4 312/2/4
f 309/6/4 310/6/4 313/6/4
f 313/6/4 310/6/4 314/6/4
f 315/6/4 316/6/4 320/6/4
f 317/3/4 318/3/4 321/3/4
f 319/6/4 320/6/4 322/6/4
f 317/3/4 321/3/4 323/3/4
f 323/3/4 321/3/4 324/3/4
f 323/2/4 324/2/4 325/2/4
f 324/3/4 321/3/4 325/3/4
f 321/6/4 322/6/4 326/6/4
f 325/3/4 321/3/4 326/3/4
f 325/2/4 326/2/4 327/2/4
f 326/6/4 322/6/4 327/6/4
f 322/6/4 320/6/4 328/6/4
f 327/6/4 322/6/4 328/6/4
f 323/2/4 325/2/4 329/2/4
f 325/2/4 327/2/4 329/2/4
f 329/2/4 327/2/4 330/2/4
f 328/6/4 320/6/4 331/6/4
f 320/6/4 316/6/4 332/6/4
f 331/6/4 320/6/4 332/6/4
f 332/6/4 316/6/4 333/6/4
f 333/6/4 316/6/4 334/6/4
f 341/7/5 336/7/5 335/7/5
f 341/5/5 337/5/5 336/5/5
f 342/5/5 337/5/5 341/5/5
f 343/4/5 339/4/5 338/4/5
f 344/7/5 340/7/5 339/7/5
f 344/4/5 339/4/5 343/4/5
f 345/7/5 342/7/5 341/7/5
f 345/7/5 341/7/5 335/7/5
f 346/7/5 342/7/5 345/7/5
f 347/7/5 344/7/5 343/7/5
f 348/7/5 340/7/5 344/7/5
f 348/7/5 344/7/5 347/7/5
f 354/2/5 350/2/5 349/2/5
f 355/3/5 351/3/5 350/3/5
f 355/2/5 350/2/5 354/2/5
f 356/2/5 352/2/5 351/2/5
f 356/3/5 351/3/5 355/3/5
f 357/2/5 352/2/5 356/2/5
f 359/2/5 354/2/5 353/2/5
f 360/3/5 355/3/5 354/3/5
f 360/2/5 354/2/5 359/2/5
f 360/3/5 356/3/5 355/3/5
f 360/3/5 357/3/5 356/3/5
f 361/2/5 358/2/5 357/2/5
f 361/3/5 357/3/5 360/3/5
f 362/2/5 358/2/5 361/2/5
f 363/3/5 360/3/5 359/3/5
f 363/3/5 361/3/5 360/3/5
f 363/3/5 362/3/5 361/3/5
f 364/3/5 362/3/5 363/3/5
f 365/3/5 362/3/5 364/3/5
f 366/3/5 362/3/5 365/3/5
f 367/3/5 362/3/5 366/3/5
f 368/3/5 362/3/5 367/3/5
f 369/3/5 363/3/5 359/3/5
f 370/3/5 363/3/5 369/3/5
f 371/3/5 366/3/5 365/3/5
f 372/3/5 366/3/5 371/3/5
f 373/3/5 363/3/5 370/3/5
f 374/3/5 372/3/5 371/3/5
f 375/3/5 372/3/5 374/3/5
f 376/3/5 362/3/5 368/3/5
f 377/3/5 375/3/5 374/3/5
f 377/3/5 376/3/5 375/3/5
f 377/3/5 362/3/5 376/3/5
f 377/3/5 374/3/5 373/3/5
f 378/3/5 362/3/5 377/3/5
f 379/2/5 370/2/5 369/2/5
f 380/3/5 373/3/5 370/3/5
f 380/2/5 370/2/5 379/2/5
f 380/3/5 377/3/5 373/3/5
f 381/3/5 377/3/5 380/3/5
f 382/2/5 378/2/5 377/2/5
f 382/3/5 377/3/5 381/3/5
f 383/2/5 378/2/5 382/2/5
f 384/3/5 381/3/5 380/3/5
f 385/2/5 382/2/5 381/2/5
f 385/3/5 381/3/5 384/3/5
f 386/2/5 382/2/5 385/2/5
f 391/6/5 388/6/5 387/6/5
f 392/6/5 388/6/5 391/6/5
f 393/6/5 390/6/5 389/6/5
f 394/6/5 390/6/5 393/6/5
f 399/6/5 396/6/5 395/6/5
f 400/6/5 396/6/5 399/6/5
f 402/6/5 398/6/5 397/6/5
f 403/6/5 398/6/5 402/6/5
f 404/6/5 398/6/5 403/6/5
f 405/6/5 396/6/5 400/6/5
f 406/6/5 396/6/5 405/6/5
f 407/6/5 403/6/5 402/6/5
f 407/6/5 402/6/5 401/6/5
f 408/6/5 403/6/5 407/6/5
f 413/6/5 410/6/5 409/6/5
f 414/6/5 410/6/5 413/6/5
f 415/6/5 412/6/5 411/6/5
f 416/6/5 412/6/5 415/6/5
f 421/7/5 418/7/5 417/7/5
f 422/7/5 418/7/5 421/7/5
f 424/7/5 420/7/5 419/7/5
f 425/7/5 420/7/5 424/7/5
f 426/5/5 423/5/5 422/5/5
f 427/4/5 424/4/5 423/4/5
f 427/5/5 423/5/5 426/5/5
f 428/4/5 424/4/5 427/4/5
f 429/1/5 427/1/5 426/1/5
f 429/1/5 428/1/5 427/1/5
f 430/1/5 428/1/5 429/1/5
f 435/6/5 432/6/5 431/6/5
f 436/6/5 432/6/5 435/6/5
f 437/6/5 434/6/5 433/6/5
f 438/6/5 434/6/5 437/6/5
f 443/6/5 440/6/5 439/6/5
f 444/6/5 440/6/5 443/6/5
f 445/6/5 442/6/5 441/6/5
f 446/6/5 442/6/5 445/6/5
f 449/6/5 448/6/5 447/6/5
f 450/6/5 448/6/5 449/6/5
f 451/6/5 448/6/5 450/6/5
f 452/3/6 453/3/6 456/3/6
f 456/3/6 453/3/6 457/3/6
f 454/3/6 455/3/6 460/3/6
f 460/3/6 455/3/6 461/3/6
f 456/1/6 457/1/6 462/1/6
f 462/1/6 457/1/6 463/1/6
f 458/3/6 459/3/6 464/3/6
f 464/3/6 459/3/6 465/3/6
f 466/2/6 467/2/6 470/2/6
f 470/2/6 467/2/6 471/2/6
f 468/2/6 469/2/6 472/2/6
f 472/2/6 469/2/6 473/2/6
f 474/3/6 475/3/6 478/3/6
f 478/3/6 475/3/6 479/3/6
f 476/2/6 477/2/6 481/2/6
f 481/2/6 477/2/6 482/2/6
f 482/2/6 477/2/6 483/2/6
f 479/3/6 475/3/6 484/3/6
f 484/3/6 475/3/6 485/3/6
f 481/2/6 482/2/6 486/2/6
f 480/2/6 481/2/6 486/2/6
f 486/2/6 482/2/6 487/2/6
f 488/3/6 489/3/6 491/3/6
f 491/3/6 489/3/6 492/3/6
f 489/2/6 490/2/6 493/2/6
f 492/3/6 489/3/6 493/3/6
f 493/2/6 490/2/6 494/2/6
f 494/2/6 490/2/6 495/2/6
f 496/7/6 497/7/6 500/7/6
f 500/7/6 497/7/6 501/7/6
f 498/7/6 499/7/6 502/7/6
f 502/7/6 499/7/6 503/7/6
f 504/6/6 505/6/6 506/6/6
f 506/6/6 505/6/6 507/6/6
f 506/7/6 507/7/6 508/7/6
f 507/6/6 505/6/6 509/6/6
f 508/7/6 507/7/6 509/7/6
f 504/6/6 506/6/6 510/6/6
f 506/7/6 508/7/6 510/7/6
f 510/7/6 508/7/6 511/7/6
f 508/6/6 509/6/6 512/6/6
f 511/7/6 508/7/6 512/7/6
f 512/6/6 509/6/6 513/6/6
f 510/6/6 511/6/6 514/6/6
f 511/7/6 512/7/6 514/7/6
f 512/7/6 513/7/6 514/7/6
f 514/7/6 513/7/6 515/7/6
f 513/6/6 509/6/6 516/6/6
f 515/7/6 513/7/6 516/7/6
f 516/6/6 509/6/6 517/6/6
f 514/6/6 515/6/6 518/6/6
f 515/7/6 516/7/6 518/7/6
f 516/7/6 517/7/6 518/7/6
f 518/7/6 517/7/6 519/7/6
f 517/6/6 509/6/6 520/6/6
f 519/7/6 517/7/6 520/7/6
f 520/6/6 509/6/6 521/6/6
f 518/6/6 519/6/6 522/6/6
f 519/7/6 520/7/6 522/7/6
f 520/7/6 521/7/6 522/7/6
f 522/7/6 521/7/6 523/7/6
f 521/6/6 509/6/6 524/6/6
f 523/7/6 521/7/6 524/7/6
f 524/6/6 509/6/6 525/6/6
f 522/6/6 523/6/6 526/6/6
f 523/7/6 524/7/6 526/7/6
f 524/7/6 525/7/6 526/7/6
f 526/7/6 525/7/6 527/7/6
f 525/6/6 509/6/6 528/6/6
f 527/7/6 525/7/6 528/7/6
f 509/6/6 505/6/6 529/6/6
f 528/6/6 509/6/6 529/6/6
f 526/6/6 527/6/6 530/6/6
f 504/6/6 510/6/6 530/6/6
f 510/6/6 514/6/6 530/6/6
f 522/6/6 526/6/6 530/6/6
f 518/6/6 522/6/6 530/6/6
f 514/6/6 518/6/6 530/6/6
f 527/7/6 528/7/6 531/7/6
f 530/6/6 527/6/6 531/6/6
f 528/7/6 529/7/6 531/7/6
f 504/6/6 530/6/6 532/6/6
f 530/7/6 531/7/6 532/7/6
f 531/7/6 529/7/6 533/7/6
f 532/7/6 531/7/6 533/7/6
f 529/6/6 505/6/6 533/6/6
f 504/6/6 532/6/6 534/6/6
f 532/6/6 533/6/6 534/6/6
f 533/6/6 505/6/6 535/6/6
f 534/6/6 533/6/6 535/6/6
