# MagicaVoxel @ Ephtracy

# group
o 

# material
mtllib tile6.mtl
usemtl palette

# normals
vn -1 0 0
vn 1 0 0
vn 0 0 1
vn 0 0 -1
vn 0 -1 0
vn 0 1 0

# texcoords
vt 0.0371094 0.5
vt 0.0410156 0.5
vt 0.0449219 0.5
vt 0.306641 0.5

# verts
v 0 2 0
v 0 2 -1
v 0 2.1 0
v 0 2.1 -0.1
v 0 2.6 0
v 0 2.6 -0.1
v 0 3 0
v 0 3 -1
v 1 2 0
v 1 2 -1
v 1 2.2 0
v 1 2.2 -0.1
v 1 2.6 0
v 1 2.6 -0.1
v 1 3 0
v 1 3 -1
v 0 2 0
v 0 2.1 0
v 0 2.6 0
v 0 3 0
v 0.1 2.1 0
v 0.1 2.2 0
v 0.1 2.5 0
v 0.1 2.6 0
v 0.2 2 0
v 0.2 2.1 0
v 0.2 2.2 0
v 0.2 2.5 0
v 0.3 2.2 0
v 0.3 2.6 0
v 0.4 2 0
v 0.4 2.1 0
v 0.4 2.2 0
v 0.4 2.3 0
v 0.4 2.5 0
v 0.5 2 0
v 0.5 2.1 0
v 0.6 2.7 0
v 0.6 2.9 0
v 0.7 2.3 0
v 0.7 2.5 0
v 0.7 2.8 0
v 0.7 2.9 0
v 0.8 2.2 0
v 0.8 2.5 0
v 0.8 2.6 0
v 0.9 2 0
v 0.9 2.1 0
v 0.9 2.2 0
v 0.9 2.6 0
v 0.9 2.7 0
v 0.9 2.8 0
v 1 2 0
v 1 2.2 0
v 1 2.6 0
v 1 3 0
v 0 2 -1
v 0 3 -1
v 1 2 -1
v 1 3 -1
v 0 2 0
v 0.2 2 0
v 0.4 2 0
v 0.5 2 0
v 0.9 2 0
v 1 2 0
v 0.2 2 -0.1
v 0.4 2 -0.1
v 0.5 2 -0.1
v 0.9 2 -0.1
v 0 2 -1
v 1 2 -1
v 0 3 0
v 1 3 0
v 0 3 -1
v 1 3 -1

# faces
f 3/3/1 2/3/1 1/3/1
f 4/3/1 2/3/1 3/3/1
f 5/1/1 4/1/1 3/1/1
f 6/3/1 2/3/1 4/3/1
f 6/1/1 4/1/1 5/1/1
f 7/3/1 6/3/1 5/3/1
f 8/3/1 2/3/1 6/3/1
f 8/3/1 6/3/1 7/3/1
f 9/3/2 10/3/2 11/3/2
f 11/3/2 10/3/2 12/3/2
f 11/2/2 12/2/2 13/2/2
f 12/3/2 10/3/2 14/3/2
f 13/2/2 12/2/2 14/2/2
f 13/3/2 14/3/2 15/3/2
f 14/3/2 10/3/2 16/3/2
f 15/3/2 14/3/2 16/3/2
f 21/3/3 18/3/3 17/3/3
f 21/1/3 19/1/3 18/1/3
f 22/1/3 19/1/3 21/1/3
f 23/1/3 19/1/3 22/1/3
f 24/3/3 20/3/3 19/3/3
f 24/1/3 19/1/3 23/1/3
f 25/3/3 21/3/3 17/3/3
f 25/3/3 22/3/3 21/3/3
f 26/3/3 22/3/3 25/3/3
f 27/1/3 23/1/3 22/1/3
f 27/3/3 22/3/3 26/3/3
f 28/3/3 24/3/3 23/3/3
f 28/1/3 23/1/3 27/1/3
f 29/3/3 27/3/3 26/3/3
f 29/3/3 28/3/3 27/3/3
f 30/3/3 20/3/3 24/3/3
f 30/3/3 28/3/3 29/3/3
f 30/3/3 24/3/3 28/3/3
f 31/2/3 26/2/3 25/2/3
f 32/3/3 29/3/3 26/3/3
f 32/2/3 26/2/3 31/2/3
f 33/2/3 30/2/3 29/2/3
f 33/3/3 29/3/3 32/3/3
f 34/2/3 30/2/3 33/2/3
f 35/2/3 30/2/3 34/2/3
f 36/3/3 32/3/3 31/3/3
f 36/3/3 33/3/3 32/3/3
f 37/3/3 33/3/3 36/3/3
f 38/3/3 20/3/3 30/3/3
f 39/3/3 20/3/3 38/3/3
f 40/3/3 35/3/3 34/3/3
f 40/1/3 34/1/3 33/1/3
f 41/2/3 30/2/3 35/2/3
f 41/3/3 35/3/3 40/3/3
f 42/2/3 39/2/3 38/2/3
f 43/3/3 20/3/3 39/3/3
f 43/2/3 39/2/3 42/2/3
f 44/3/3 33/3/3 37/3/3
f 44/1/3 40/1/3 33/1/3
f 44/1/3 41/1/3 40/1/3
f 45/2/3 30/2/3 41/2/3
f 45/1/3 41/1/3 44/1/3
f 46/3/3 38/3/3 30/3/3
f 46/2/3 30/2/3 45/2/3
f 47/2/3 37/2/3 36/2/3
f 48/3/3 44/3/3 37/3/3
f 48/2/3 37/2/3 47/2/3
f 48/3/3 45/3/3 44/3/3
f 48/3/3 46/3/3 45/3/3
f 49/3/3 46/3/3 48/3/3
f 50/3/3 38/3/3 46/3/3
f 50/3/3 46/3/3 49/3/3
f 51/2/3 42/2/3 38/2/3
f 51/3/3 38/3/3 50/3/3
f 52/3/3 43/3/3 42/3/3
f 52/2/3 42/2/3 51/2/3
f 53/3/3 49/3/3 48/3/3
f 53/3/3 48/3/3 47/3/3
f 54/2/3 50/2/3 49/2/3
f 54/3/3 49/3/3 53/3/3
f 55/3/3 51/3/3 50/3/3
f 55/2/3 50/2/3 54/2/3
f 55/3/3 52/3/3 51/3/3
f 56/3/3 20/3/3 43/3/3
f 56/3/3 52/3/3 55/3/3
f 56/3/3 43/3/3 52/3/3
f 57/3/4 58/3/4 59/3/4
f 59/3/4 58/3/4 60/3/4
f 67/3/5 62/3/5 61/3/5
f 67/2/5 63/2/5 62/2/5
f 68/3/5 64/3/5 63/3/5
f 68/2/5 63/2/5 67/2/5
f 69/2/5 65/2/5 64/2/5
f 69/3/5 64/3/5 68/3/5
f 70/3/5 66/3/5 65/3/5
f 70/2/5 65/2/5 69/2/5
f 71/3/5 69/3/5 68/3/5
f 71/3/5 68/3/5 67/3/5
f 71/3/5 70/3/5 69/3/5
f 71/3/5 67/3/5 61/3/5
f 72/3/5 66/3/5 70/3/5
f 72/3/5 70/3/5 71/3/5
f 73/3/6 74/3/6 75/3/6
f 75/3/6 74/3/6 76/3/6
