# MagicaVoxel @ Ephtracy

# group
o 

# material
mtllib tile7.mtl
usemtl palette

# normals
vn -1 0 0
vn 1 0 0
vn 0 0 1
vn 0 0 -1
vn 0 -1 0
vn 0 1 0

# texcoords
vt 0.0371094 0.5
vt 0.0410156 0.5
vt 0.0449219 0.5
vt 0.306641 0.5

# verts
v 0 2 0
v 0 2 -1
v 0 2.3 0
v 0 2.3 -0.1
v 0 2.7 0
v 0 2.7 -0.1
v 0 3 0
v 0 3 -1
v 1 2 0
v 1 2 -1
v 1 2.1 0
v 1 2.1 -0.1
v 1 2.7 0
v 1 2.7 -0.1
v 1 2.8 0
v 1 2.8 -0.1
v 1 2.9 0
v 1 2.9 -0.1
v 1 3 0
v 1 3 -1
v 0 2 0
v 0 2.3 0
v 0 2.7 0
v 0 3 0
v 0.1 2.3 0
v 0.1 2.7 0
v 0.2 2 0
v 0.2 2.1 0
v 0.3 2.9 0
v 0.3 3 0
v 0.7 2.9 0
v 0.7 3 0
v 0.8 2 0
v 0.8 2.1 0
v 0.9 2.1 0
v 0.9 2.7 0
v 0.9 2.8 0
v 0.9 2.9 0
v 1 2 0
v 1 2.1 0
v 1 2.7 0
v 1 2.8 0
v 1 2.9 0
v 1 3 0
v 0 2 -1
v 0 3 -1
v 1 2 -1
v 1 3 -1
v 0 2 0
v 0.2 2 0
v 0.8 2 0
v 1 2 0
v 0.2 2 -0.1
v 0.8 2 -0.1
v 0 2 -1
v 1 2 -1
v 0 3 0
v 0.3 3 0
v 0.7 3 0
v 1 3 0
v 0.3 3 -0.1
v 0.7 3 -0.1
v 0 3 -1
v 1 3 -1

# faces
f 3/3/1 2/3/1 1/3/1
f 4/3/1 2/3/1 3/3/1
f 5/1/1 4/1/1 3/1/1
f 6/3/1 2/3/1 4/3/1
f 6/1/1 4/1/1 5/1/1
f 7/3/1 6/3/1 5/3/1
f 8/3/1 2/3/1 6/3/1
f 8/3/1 6/3/1 7/3/1
f 9/3/2 10/3/2 11/3/2
f 11/3/2 10/3/2 12/3/2
f 11/2/2 12/2/2 13/2/2
f 12/3/2 10/3/2 14/3/2
f 13/2/2 12/2/2 14/2/2
f 13/3/2 14/3/2 15/3/2
f 14/3/2 10/3/2 16/3/2
f 15/3/2 14/3/2 16/3/2
f 15/2/2 16/2/2 17/2/2
f 16/3/2 10/3/2 18/3/2
f 17/2/2 16/2/2 18/2/2
f 17/3/2 18/3/2 19/3/2
f 18/3/2 10/3/2 20/3/2
f 19/3/2 18/3/2 20/3/2
f 25/3/3 22/3/3 21/3/3
f 25/1/3 23/1/3 22/1/3
f 26/3/3 24/3/3 23/3/3
f 26/1/3 23/1/3 25/1/3
f 27/3/3 25/3/3 21/3/3
f 27/3/3 26/3/3 25/3/3
f 28/3/3 26/3/3 27/3/3
f 29/3/3 24/3/3 26/3/3
f 29/3/3 26/3/3 28/3/3
f 30/3/3 24/3/3 29/3/3
f 31/3/3 29/3/3 28/3/3
f 31/1/3 30/1/3 29/1/3
f 32/1/3 30/1/3 31/1/3
f 33/2/3 28/2/3 27/2/3
f 34/3/3 31/3/3 28/3/3
f 34/2/3 28/2/3 33/2/3
f 34/3/3 32/3/3 31/3/3
f 35/3/3 34/3/3 33/3/3
f 35/3/3 32/3/3 34/3/3
f 36/3/3 32/3/3 35/3/3
f 37/3/3 32/3/3 36/3/3
f 38/3/3 32/3/3 37/3/3
f 39/3/3 35/3/3 33/3/3
f 40/2/3 36/2/3 35/2/3
f 40/3/3 35/3/3 39/3/3
f 41/3/3 37/3/3 36/3/3
f 41/2/3 36/2/3 40/2/3
f 42/2/3 38/2/3 37/2/3
f 42/3/3 37/3/3 41/3/3
f 43/3/3 32/3/3 38/3/3
f 43/2/3 38/2/3 42/2/3
f 44/3/3 32/3/3 43/3/3
f 45/3/4 46/3/4 47/3/4
f 47/3/4 46/3/4 48/3/4
f 53/3/5 50/3/5 49/3/5
f 53/2/5 51/2/5 50/2/5
f 54/3/5 52/3/5 51/3/5
f 54/2/5 51/2/5 53/2/5
f 55/3/5 53/3/5 49/3/5
f 55/3/5 54/3/5 53/3/5
f 56/3/5 52/3/5 54/3/5
f 56/3/5 54/3/5 55/3/5
f 57/3/6 58/3/6 61/3/6
f 58/1/6 59/1/6 61/1/6
f 59/3/6 60/3/6 62/3/6
f 61/1/6 59/1/6 62/1/6
f 57/3/6 61/3/6 63/3/6
f 61/3/6 62/3/6 63/3/6
f 62/3/6 60/3/6 64/3/6
f 63/3/6 62/3/6 64/3/6
