# MagicaVoxel @ Ephtracy

# group
o 

# material
mtllib tile5.mtl
usemtl palette

# normals
vn -1 0 0
vn 1 0 0
vn 0 0 1
vn 0 0 -1
vn 0 -1 0
vn 0 1 0

# texcoords
vt 0.0371094 0.5
vt 0.0410156 0.5
vt 0.0449219 0.5
vt 0.306641 0.5
vt 0.748047 0.5

# verts
v 0 2 0
v 0 2 -1
v 0 2.2 0
v 0 2.2 -0.1
v 0 2.6 0
v 0 2.6 -0.1
v 0 3 0
v 0 3 -0.1
v 0 3 -1
v 1 2 0
v 1 2 -0.1
v 1 2 -1
v 1 2.5 0
v 1 2.5 -0.1
v 1 2.6 0
v 1 2.6 -0.1
v 1 2.7 0
v 1 2.7 -0.1
v 1 3 0
v 1 3 -0.1
v 1 3 -1
v 0 2 0
v 0 2.2 0
v 0 2.6 0
v 0 3 0
v 0.1 2.2 0
v 0.1 2.4 0
v 0.1 2.6 0
v 0.1 2.7 0
v 0.2 2 0
v 0.2 2.1 0
v 0.2 2.4 0
v 0.2 2.7 0
v 0.2 2.8 0
v 0.3 2.7 0
v 0.3 2.8 0
v 0.4 2.6 0
v 0.4 2.7 0
v 0.5 2.6 0
v 0.5 2.7 0
v 0.6 2.7 0
v 0.6 2.8 0
v 0.7 2 0
v 0.7 2.1 0
v 0.7 2.6 0
v 0.7 2.8 0
v 0.8 2.5 0
v 0.8 2.6 0
v 0.9 2 0
v 0.9 2.5 0
v 0.9 2.6 0
v 0.9 2.7 0
v 1 2 0
v 1 2.5 0
v 1 2.6 0
v 1 2.7 0
v 1 3 0
v 0 2 -1
v 0 3 -1
v 1 2 -1
v 1 3 -1
v 0 2 0
v 0.2 2 0
v 0.7 2 0
v 0.9 2 0
v 1 2 0
v 0.2 2 -0.1
v 0.7 2 -0.1
v 0.9 2 -0.1
v 1 2 -0.1
v 0 2 -1
v 1 2 -1
v 0 3 0
v 1 3 0
v 0 3 -0.1
v 1 3 -0.1
v 0 3 -1
v 1 3 -1

# faces
f 3/3/1 2/3/1 1/3/1
f 4/3/1 2/3/1 3/3/1
f 5/1/1 4/1/1 3/1/1
f 6/3/1 2/3/1 4/3/1
f 6/1/1 4/1/1 5/1/1
f 7/5/1 6/5/1 5/5/1
f 8/3/1 2/3/1 6/3/1
f 8/5/1 6/5/1 7/5/1
f 9/3/1 2/3/1 8/3/1
f 10/2/2 11/2/2 13/2/2
f 11/3/2 12/3/2 14/3/2
f 13/2/2 11/2/2 14/2/2
f 13/3/2 14/3/2 15/3/2
f 14/3/2 12/3/2 16/3/2
f 15/3/2 14/3/2 16/3/2
f 15/2/2 16/2/2 17/2/2
f 16/3/2 12/3/2 18/3/2
f 17/2/2 16/2/2 18/2/2
f 17/5/2 18/5/2 19/5/2
f 18/3/2 12/3/2 20/3/2
f 19/5/2 18/5/2 20/5/2
f 20/3/2 12/3/2 21/3/2
f 26/3/3 23/3/3 22/3/3
f 26/1/3 24/1/3 23/1/3
f 27/1/3 24/1/3 26/1/3
f 28/5/3 25/5/3 24/5/3
f 28/1/3 24/1/3 27/1/3
f 29/5/3 25/5/3 28/5/3
f 30/3/3 27/3/3 26/3/3
f 30/3/3 26/3/3 22/3/3
f 31/3/3 27/3/3 30/3/3
f 32/1/3 29/1/3 28/1/3
f 32/3/3 27/3/3 31/3/3
f 32/1/3 28/1/3 27/1/3
f 33/5/3 25/5/3 29/5/3
f 33/1/3 29/1/3 32/1/3
f 34/5/3 25/5/3 33/5/3
f 35/3/3 32/3/3 31/3/3
f 35/3/3 33/3/3 32/3/3
f 35/3/3 34/3/3 33/3/3
f 36/5/3 25/5/3 34/5/3
f 36/3/3 34/3/3 35/3/3
f 37/3/3 35/3/3 31/3/3
f 38/5/3 36/5/3 35/5/3
f 38/3/3 35/3/3 37/3/3
f 39/3/3 37/3/3 31/3/3
f 39/5/3 38/5/3 37/5/3
f 40/5/3 36/5/3 38/5/3
f 40/5/3 38/5/3 39/5/3
f 41/3/3 40/3/3 39/3/3
f 41/5/3 36/5/3 40/5/3
f 42/5/3 25/5/3 36/5/3
f 42/5/3 36/5/3 41/5/3
f 43/2/3 31/2/3 30/2/3
f 44/3/3 41/3/3 39/3/3
f 44/2/3 31/2/3 43/2/3
f 44/3/3 39/3/3 31/3/3
f 44/3/3 42/3/3 41/3/3
f 45/3/3 42/3/3 44/3/3
f 46/5/3 25/5/3 42/5/3
f 46/3/3 42/3/3 45/3/3
f 47/3/3 45/3/3 44/3/3
f 47/3/3 44/3/3 43/3/3
f 48/5/3 46/5/3 45/5/3
f 48/3/3 45/3/3 47/3/3
f 49/3/3 47/3/3 43/3/3
f 50/5/3 48/5/3 47/5/3
f 50/3/3 47/3/3 49/3/3
f 51/5/3 46/5/3 48/5/3
f 51/5/3 48/5/3 50/5/3
f 52/5/3 46/5/3 51/5/3
f 53/2/3 50/2/3 49/2/3
f 54/3/3 51/3/3 50/3/3
f 54/2/3 50/2/3 53/2/3
f 55/2/3 52/2/3 51/2/3
f 55/3/3 51/3/3 54/3/3
f 56/5/3 46/5/3 52/5/3
f 56/2/3 52/2/3 55/2/3
f 57/5/3 25/5/3 46/5/3
f 57/5/3 46/5/3 56/5/3
f 58/3/4 59/3/4 60/3/4
f 60/3/4 59/3/4 61/3/4
f 67/3/5 63/3/5 62/3/5
f 67/2/5 64/2/5 63/2/5
f 68/3/5 65/3/5 64/3/5
f 68/2/5 64/2/5 67/2/5
f 69/2/5 66/2/5 65/2/5
f 69/3/5 65/3/5 68/3/5
f 70/2/5 66/2/5 69/2/5
f 71/3/5 68/3/5 67/3/5
f 71/3/5 67/3/5 62/3/5
f 71/3/5 70/3/5 69/3/5
f 71/3/5 69/3/5 68/3/5
f 72/3/5 70/3/5 71/3/5
f 73/5/6 74/5/6 75/5/6
f 75/5/6 74/5/6 76/5/6
f 75/3/6 76/3/6 77/3/6
f 77/3/6 76/3/6 78/3/6
