# MagicaVoxel @ Ephtracy

# group
o 

# material
mtllib tile2.mtl
usemtl palette

# normals
vn -1 0 0
vn 1 0 0
vn 0 0 1
vn 0 0 -1
vn 0 -1 0
vn 0 1 0

# texcoords
vt 0.0371094 0.5
vt 0.0410156 0.5
vt 0.0449219 0.5
vt 0.306641 0.5

# verts
v 0 2 0
v 0 2 -0.1
v 0 2 -1
v 0 2.1 0
v 0 2.1 -0.1
v 0 3 0
v 0 3 -1
v 1 2 0
v 1 2 -0.1
v 1 2 -1
v 1 3 0
v 1 3 -0.1
v 1 3 -1
v 0 2 0
v 0 2.1 0
v 0 3 0
v 0.3 2.3 0
v 0.3 2.4 0
v 0.3 2.6 0
v 0.4 2.4 0
v 0.4 2.6 0
v 0.4 2.7 0
v 0.6 2.4 0
v 0.6 2.6 0
v 0.6 2.7 0
v 0.7 2.3 0
v 0.7 2.7 0
v 0.9 2.1 0
v 0.9 3 0
v 1 2 0
v 1 3 0
v 0 2 -1
v 0 3 -1
v 1 2 -1
v 1 3 -1
v 0 2 0
v 1 2 0
v 0 2 -0.1
v 1 2 -0.1
v 0 2 -1
v 1 2 -1
v 0 3 0
v 0.9 3 0
v 1 3 0
v 0.9 3 -0.1
v 1 3 -0.1
v 0 3 -1
v 1 3 -1

# faces
f 4/2/1 2/2/1 1/2/1
f 5/3/1 3/3/1 2/3/1
f 5/2/1 2/2/1 4/2/1
f 6/3/1 5/3/1 4/3/1
f 7/3/1 3/3/1 5/3/1
f 7/3/1 5/3/1 6/3/1
f 8/2/2 9/2/2 11/2/2
f 9/3/2 10/3/2 12/3/2
f 11/2/2 9/2/2 12/2/2
f 12/3/2 10/3/2 13/3/2
f 17/3/3 16/3/3 15/3/3
f 18/3/3 16/3/3 17/3/3
f 19/3/3 16/3/3 18/3/3
f 20/1/3 18/1/3 17/1/3
f 20/2/3 19/2/3 18/2/3
f 21/3/3 16/3/3 19/3/3
f 21/2/3 19/2/3 20/2/3
f 22/3/3 16/3/3 21/3/3
f 23/1/3 20/1/3 17/1/3
f 23/3/3 21/3/3 20/3/3
f 24/2/3 22/2/3 21/2/3
f 24/3/3 21/3/3 23/3/3
f 25/3/3 16/3/3 22/3/3
f 25/2/3 22/2/3 24/2/3
f 26/3/3 17/3/3 15/3/3
f 26/1/3 24/1/3 23/1/3
f 26/1/3 25/1/3 24/1/3
f 26/1/3 23/1/3 17/1/3
f 27/3/3 16/3/3 25/3/3
f 27/1/3 25/1/3 26/1/3
f 28/2/3 15/2/3 14/2/3
f 28/3/3 26/3/3 15/3/3
f 28/3/3 27/3/3 26/3/3
f 29/3/3 16/3/3 27/3/3
f 29/3/3 27/3/3 28/3/3
f 30/2/3 28/2/3 14/2/3
f 30/2/3 29/2/3 28/2/3
f 31/2/3 29/2/3 30/2/3
f 32/3/4 33/3/4 34/3/4
f 34/3/4 33/3/4 35/3/4
f 38/2/5 37/2/5 36/2/5
f 39/2/5 37/2/5 38/2/5
f 40/3/5 39/3/5 38/3/5
f 41/3/5 39/3/5 40/3/5
f 42/3/6 43/3/6 45/3/6
f 43/2/6 44/2/6 45/2/6
f 45/2/6 44/2/6 46/2/6
f 42/3/6 45/3/6 47/3/6
f 45/3/6 46/3/6 47/3/6
f 47/3/6 46/3/6 48/3/6
