# MagicaVoxel @ Ephtracy

# group
o 

# material
mtllib ghost.mtl
usemtl palette

# normals
vn -1 0 0
vn 1 0 0
vn 0 0 1
vn 0 0 -1
vn 0 -1 0
vn 0 1 0

# texcoords
vt 0.00195313 0.5
vt 0.0175781 0.5
vt 0.0214844 0.5
vt 0.0605469 0.5
vt 0.810547 0.5

# verts
v 0 2.2 0
v 0 2.2 -1
v 0 3 0
v 0 3 -1
v 0.6 2.3 -0.1
v 0.6 2.3 -0.4
v 0.6 2.4 -0.1
v 0.6 2.5 -0.1
v 0.6 2.5 -0.4
v 0.8 2.4 0
v 0.8 2.4 -0.1
v 0.8 2.7 0
v 0.8 2.7 -0.1
v 0.2 2.4 0
v 0.2 2.4 -0.1
v 0.2 2.7 0
v 0.2 2.7 -0.1
v 0.4 2.3 -0.1
v 0.4 2.3 -0.4
v 0.4 2.4 -0.1
v 0.4 2.5 -0.1
v 0.4 2.5 -0.4
v 1 2.2 0
v 1 2.2 -1
v 1 3 0
v 1 3 -1
v 0 2.2 0
v 0 3 0
v 0.2 2.4 0
v 0.2 2.7 0
v 0.8 2.4 0
v 0.8 2.7 0
v 1 2.2 0
v 1 3 0
v 0.2 2.4 -0.1
v 0.2 2.7 -0.1
v 0.3 2.5 -0.1
v 0.3 2.6 -0.1
v 0.4 2.4 -0.1
v 0.4 2.5 -0.1
v 0.4 2.6 -0.1
v 0.6 2.4 -0.1
v 0.6 2.5 -0.1
v 0.6 2.6 -0.1
v 0.7 2.5 -0.1
v 0.7 2.6 -0.1
v 0.8 2.4 -0.1
v 0.8 2.7 -0.1
v 0.4 2.3 -0.4
v 0.4 2.5 -0.4
v 0.6 2.3 -0.4
v 0.6 2.5 -0.4
v 0.4 2.3 -0.1
v 0.4 2.4 -0.1
v 0.6 2.3 -0.1
v 0.6 2.4 -0.1
v 0 2.2 -1
v 0 3 -1
v 1 2.2 -1
v 1 3 -1
v 0 2.2 0
v 1 2.2 0
v 0 2.2 -1
v 1 2.2 -1
v 0.4 2.5 -0.1
v 0.6 2.5 -0.1
v 0.4 2.5 -0.4
v 0.6 2.5 -0.4
v 0.2 2.7 0
v 0.8 2.7 0
v 0.2 2.7 -0.1
v 0.8 2.7 -0.1
v 0.4 2.3 -0.1
v 0.6 2.3 -0.1
v 0.4 2.3 -0.4
v 0.6 2.3 -0.4
v 0.2 2.4 0
v 0.8 2.4 0
v 0.2 2.4 -0.1
v 0.4 2.4 -0.1
v 0.6 2.4 -0.1
v 0.8 2.4 -0.1
v 0 3 0
v 1 3 0
v 0.4 3 -0.1
v 0.6 3 -0.1
v 0.3 3 -0.2
v 0.4 3 -0.2
v 0.6 3 -0.2
v 0.7 3 -0.2
v 0.2 3 -0.3
v 0.3 3 -0.3
v 0.4 3 -0.3
v 0.6 3 -0.3
v 0.7 3 -0.3
v 0.8 3 -0.3
v 0.2 3 -0.4
v 0.3 3 -0.4
v 0.7 3 -0.4
v 0.8 3 -0.4
v 0.2 3 -0.5
v 0.3 3 -0.5
v 0.5 3 -0.5
v 0.2 3 -0.6
v 0.3 3 -0.6
v 0.5 3 -0.6
v 0.3 3 -0.7
v 0.4 3 -0.7
v 0.6 3 -0.7
v 0.7 3 -0.7
v 0.8 3 -0.7
v 0.2 3 -0.8
v 0.3 3 -0.8
v 0.4 3 -0.8
v 0.6 3 -0.8
v 0.7 3 -0.8
v 0.3 3 -0.9
v 0.4 3 -0.9
v 0.6 3 -0.9
v 0 3 -1
v 1 3 -1

# faces
f 3/1/1 2/1/1 1/1/1
f 4/1/1 2/1/1 3/1/1
f 7/1/1 6/1/1 5/1/1
f 8/1/1 6/1/1 7/1/1
f 9/1/1 6/1/1 8/1/1
f 12/1/1 11/1/1 10/1/1
f 13/1/1 11/1/1 12/1/1
f 14/1/2 15/1/2 16/1/2
f 16/1/2 15/1/2 17/1/2
f 18/1/2 19/1/2 20/1/2
f 20/1/2 19/1/2 21/1/2
f 21/1/2 19/1/2 22/1/2
f 23/1/2 24/1/2 25/1/2
f 25/1/2 24/1/2 26/1/2
f 29/1/3 28/1/3 27/1/3
f 30/1/3 28/1/3 29/1/3
f 31/1/3 29/1/3 27/1/3
f 32/1/3 28/1/3 30/1/3
f 33/1/3 31/1/3 27/1/3
f 33/1/3 32/1/3 31/1/3
f 34/1/3 28/1/3 32/1/3
f 34/1/3 32/1/3 33/1/3
f 37/1/3 36/1/3 35/1/3
f 38/1/3 36/1/3 37/1/3
f 39/1/3 37/1/3 35/1/3
f 40/2/3 38/2/3 37/2/3
f 40/1/3 37/1/3 39/1/3
f 41/1/3 36/1/3 38/1/3
f 41/2/3 38/2/3 40/2/3
f 43/1/3 41/1/3 40/1/3
f 44/1/3 36/1/3 41/1/3
f 44/1/3 41/1/3 43/1/3
f 45/1/3 43/1/3 42/1/3
f 45/5/3 44/5/3 43/5/3
f 46/1/3 36/1/3 44/1/3
f 46/5/3 44/5/3 45/5/3
f 47/1/3 45/1/3 42/1/3
f 47/1/3 46/1/3 45/1/3
f 48/1/3 36/1/3 46/1/3
f 48/1/3 46/1/3 47/1/3
f 51/1/3 50/1/3 49/1/3
f 52/1/3 50/1/3 51/1/3
f 53/1/4 54/1/4 55/1/4
f 55/1/4 54/1/4 56/1/4
f 57/1/4 58/1/4 59/1/4
f 59/1/4 58/1/4 60/1/4
f 63/1/5 62/1/5 61/1/5
f 64/1/5 62/1/5 63/1/5
f 67/1/5 66/1/5 65/1/5
f 68/1/5 66/1/5 67/1/5
f 71/1/5 70/1/5 69/1/5
f 72/1/5 70/1/5 71/1/5
f 73/1/6 74/1/6 75/1/6
f 75/1/6 74/1/6 76/1/6
f 77/1/6 78/1/6 79/1/6
f 79/1/6 78/1/6 80/1/6
f 80/1/6 78/1/6 81/1/6
f 81/1/6 78/1/6 82/1/6
f 83/1/6 84/1/6 85/1/6
f 85/1/6 84/1/6 86/1/6
f 83/1/6 85/1/6 87/1/6
f 85/5/6 86/5/6 88/5/6
f 87/1/6 85/1/6 88/1/6
f 86/1/6 84/1/6 89/1/6
f 88/5/6 86/5/6 89/5/6
f 89/1/6 84/1/6 90/1/6
f 83/1/6 87/1/6 91/1/6
f 87/3/6 88/3/6 92/3/6
f 91/1/6 87/1/6 92/1/6
f 88/1/6 89/1/6 93/1/6
f 92/3/6 88/3/6 93/3/6
f 89/3/6 90/3/6 94/3/6
f 93/1/6 89/1/6 94/1/6
f 90/1/6 84/1/6 95/1/6
f 94/3/6 90/3/6 95/3/6
f 95/1/6 84/1/6 96/1/6
f 83/1/6 91/1/6 97/1/6
f 91/5/6 92/5/6 97/5/6
f 93/1/6 94/1/6 98/1/6
f 97/5/6 92/5/6 98/5/6
f 92/1/6 93/1/6 98/1/6
f 94/1/6 95/1/6 98/1/6
f 95/3/6 96/3/6 99/3/6
f 98/1/6 95/1/6 99/1/6
f 96/1/6 84/1/6 100/1/6
f 99/3/6 96/3/6 100/3/6
f 98/1/6 99/1/6 101/1/6
f 83/1/6 97/1/6 101/1/6
f 97/1/6 98/1/6 101/1/6
f 101/1/6 99/1/6 102/1/6
f 102/1/6 99/1/6 103/1/6
f 83/1/6 101/1/6 104/1/6
f 101/3/6 102/3/6 104/3/6
f 102/5/6 103/5/6 105/5/6
f 104/3/6 102/3/6 105/3/6
f 103/1/6 99/1/6 106/1/6
f 105/5/6 103/5/6 106/5/6
f 104/5/6 105/5/6 107/5/6
f 105/1/6 106/1/6 107/1/6
f 107/1/6 106/1/6 108/1/6
f 106/1/6 99/1/6 109/1/6
f 108/1/6 106/1/6 109/1/6
f 99/5/6 100/5/6 110/5/6
f 109/1/6 99/1/6 110/1/6
f 100/1/6 84/1/6 111/1/6
f 110/5/6 100/5/6 111/5/6
f 107/5/6 108/5/6 112/5/6
f 83/1/6 104/1/6 112/1/6
f 104/5/6 107/5/6 112/5/6
f 112/5/6 108/5/6 113/5/6
f 108/1/6 109/1/6 114/1/6
f 113/5/6 108/5/6 114/5/6
f 109/3/6 110/3/6 115/3/6
f 114/1/6 109/1/6 115/1/6
f 110/1/6 111/1/6 116/1/6
f 115/3/6 110/3/6 116/3/6
f 113/5/6 114/5/6 117/5/6
f 112/1/6 113/1/6 117/1/6
f 114/3/6 115/3/6 118/3/6
f 117/5/6 114/5/6 118/5/6
f 115/1/6 116/1/6 119/1/6
f 118/3/6 115/3/6 119/3/6
f 117/1/6 118/1/6 120/1/6
f 112/1/6 117/1/6 120/1/6
f 118/1/6 119/1/6 120/1/6
f 83/1/6 112/1/6 120/1/6
f 116/1/6 111/1/6 121/1/6
f 120/1/6 119/1/6 121/1/6
f 119/1/6 116/1/6 121/1/6
f 111/1/6 84/1/6 121/1/6
